<svg id="Layer_1" data-name="Layer 1" xmlns="http://www.w3.org/2000/svg" viewBox="0 0 124 124"><defs><style>.cls-1{fill:none;stroke:#000;}</style></defs><title>signature-specification</title><path d="M29.21,24.79l-8.75-8c-.95-.87-2.37.54-1.41,1.41l8.75,8c.95.87,2.37-.54,1.41-1.41Z"/><path d="M20.46,26.21l8.75-8c1-.87-.47-2.28-1.41-1.41l-8.75,8c-1,.87.47,2.28,1.41,1.41Z"/><path d="M32.75,26.5H46.5a1,1,0,0,0,0-2H32.75a1,1,0,0,0,0,2Z"/><rect class="cls-1" x="14.5" y="11.5" width="36" height="18" rx="1" ry="1"/></svg>